<svg width="25" height="35" viewBox="0 0 25 35" fill="none" xmlns="http://www.w3.org/2000/svg">
<path d="M16.6614 2.17811L16.7642 0.681644L16.6614 2.17811C17.1826 2.21394 18.0445 2.97655 17.8335 4.36368C17.4704 6.75007 17.0782 9.20347 16.6461 11.4546L16.3003 13.2562L18.1348 13.2372C19.5935 13.2221 20.8305 13.2402 21.8357 13.2715L21.8357 13.2715C22.2126 13.2832 22.6092 13.5278 22.8465 14.1219C23.0855 14.72 23.0581 15.4767 22.6764 16.0926C20.319 19.8958 16.0342 26.5464 11.3733 32.5116L12.5552 33.4351L11.3732 32.5116C11.1047 32.8553 10.8668 32.9571 10.7193 32.9869C10.5647 33.0182 10.3797 32.9966 10.1754 32.881C9.75769 32.6448 9.28638 32.0013 9.36134 30.9919C9.61513 27.5754 9.86959 24.4165 10.1127 22.0578L10.2843 20.3931L8.61082 20.404C6.36052 20.4187 4.43274 20.3072 3.12309 20.1998C2.64348 20.1605 1.85111 19.4941 2.02104 18.2097C2.4104 15.2668 3.32523 9.70971 5.24081 3.69655C5.55535 2.70918 6.23639 2.24161 6.7979 2.19256C10.5564 1.86429 14.3942 2.02229 16.6614 2.17811Z" fill="#CFFF04" stroke="black" stroke-width="3"/>
</svg>
